<?xml version="1.0" encoding="UTF-8"?>
<svg version="1.1" xmlns="http://www.w3.org/2000/svg" width="512" height="512">
<path d="M0 0 C4.95103032 2.04112997 9.94048491 3.98140572 14.93664551 5.90896606 C15.90554718 6.28278915 16.87444885 6.65661224 17.87271118 7.04176331 C28.69329856 11.14737806 39.50615654 13.59475617 50.98742676 15.01834106 C52.20606635 15.18181125 53.42470594 15.34528143 54.68027401 15.51370525 C64.53391827 16.79781153 74.19663667 17.31217502 84.13220215 17.29299927 C85.66225428 17.29736351 87.19230423 17.30255223 88.72235107 17.30848694 C92.82408998 17.32170899 96.9257358 17.32247432 101.02749181 17.31992364 C104.48069614 17.31884171 107.93388256 17.32376842 111.38708299 17.32852906 C119.55262506 17.33956773 127.71812111 17.34009462 135.88366699 17.33401489 C144.23773368 17.3279892 152.59163135 17.34026344 160.94566923 17.36158496 C168.17860976 17.37934942 175.41149724 17.38517896 182.64445871 17.38194722 C186.93747373 17.38015657 191.23036836 17.38254261 195.52336311 17.39666176 C231.49006508 17.50474181 263.10577042 13.21950816 296.56237793 -0.42037964 C321.6012189 -10.56575198 321.6012189 -10.56575198 334.09411621 -5.79537964 C340.86984861 -2.26070043 345.16638957 3.12794343 348.36242676 9.95584106 C350.44269528 20.14915682 347.73063388 29.00545954 343.38977051 38.19021606 C343.03910522 38.94673462 342.68843994 39.70325317 342.32714844 40.48269653 C341.58205567 42.08822048 340.83389129 43.69232208 340.08285522 45.29507446 C338.9150468 47.78944408 337.75759476 50.28838195 336.60290527 52.78884888 C333.39159494 59.73666305 330.16011348 66.67352429 326.86242676 73.58084106 C326.22639526 74.93484009 326.22639526 74.93484009 325.57751465 76.31619263 C324.8413451 77.88240464 324.0917951 79.44244278 323.32507324 80.993927 C318.88246962 90.51427282 321.42882702 101.06936015 322.52584839 111.16415405 C324.28396322 127.46816829 325.63039272 143.77863559 326.67492676 160.14334106 C326.76551865 161.54765884 326.76551865 161.54765884 326.85794067 162.98034668 C328.17289948 183.52909208 329.14690414 204.03809916 329.15539551 224.63162231 C329.15863076 226.54220094 329.16199625 228.45277936 329.16548157 230.36335754 C329.17140773 234.34397959 329.17332866 238.32458017 329.17272949 242.3052063 C329.17264894 246.28832612 329.17948943 250.27132919 329.1932373 254.25442505 C329.31473806 290.07866504 328.15415837 325.69957518 324.98742676 361.39334106 C324.82012716 363.35813102 324.65346525 365.32297538 324.48742676 367.28787231 C323.65026047 377.08112682 322.74723038 386.86177965 321.59680176 396.62390137 C321.35740903 398.75373044 321.1638146 400.88243735 320.98742676 403.01834106 C320.87770287 404.03770752 320.87770287 404.03770752 320.76576233 405.07766724 C320.30746729 412.49710529 323.11272447 418.81342838 325.76477051 425.62771606 C326.25702782 426.9251362 326.74785301 428.22310052 327.23731995 429.52157593 C328.52127115 432.917708 329.82213434 436.30708938 331.12750244 439.69503784 C333.21732329 445.12857204 335.27955705 450.5726564 337.34454536 456.01566315 C338.06500629 457.90800325 338.79181214 459.79780175 339.5198822 461.68722534 C339.96026321 462.83902283 340.40064423 463.99082031 340.85437012 465.17752075 C341.43728065 466.69234039 341.43728065 466.69234039 342.03196716 468.23776245 C344.65697749 475.87706777 344.90186928 483.19438889 342.08508301 490.78005981 C339.08823811 496.89106382 334.37160923 501.99826797 327.87756348 504.31594849 C314.45152891 507.57888998 299.66734837 503.93533207 286.39468384 501.51370239 C280.54465076 500.44858338 274.68535826 499.43648417 268.82727051 498.41677856 C267.65405746 498.21135437 266.48084442 498.00593018 265.27207947 497.79428101 C255.22703456 496.04124405 245.16893834 494.39991765 235.08337402 492.89730835 C233.43589755 492.65086956 231.78904045 492.40024123 230.14294434 492.14474487 C221.35698869 490.78437887 212.6431187 489.83850934 203.75769043 489.46047974 C202.80383831 489.4188631 201.84998619 489.37724646 200.86722946 489.33436871 C190.7147546 488.92163963 180.56887457 488.8543597 170.40930176 488.85037231 C168.41794819 488.84714158 166.42659483 488.84377632 164.4352417 488.84028625 C160.29752046 488.8343642 156.15981989 488.8324392 152.02209473 488.83303833 C147.83943357 488.83311961 143.65688191 488.82616272 139.47424316 488.81253052 C106.17543283 488.60737168 106.17543283 488.60737168 72.98742676 491.01834106 C72.13221436 491.11640045 71.27700195 491.21445984 70.39587402 491.31549072 C64.70228765 491.99086739 59.03276827 492.79710779 53.36242676 493.64334106 C51.60595119 493.89830132 49.84943964 494.15301376 48.09289551 494.40750122 C38.0295811 495.8822102 27.99264843 497.49648655 17.96398926 499.19021606 C16.87927338 499.3731723 15.7945575 499.55612854 14.67697144 499.74462891 C9.3823615 500.64054846 4.09037872 501.54927423 -1.1986084 502.47781372 C-3.13658438 502.81170676 -5.07457209 503.14553171 -7.01257324 503.47927856 C-7.87756439 503.63523499 -8.74255554 503.79119141 -9.63375854 503.95187378 C-19.29828685 505.60124577 -28.3433018 506.22572224 -37.01257324 501.01834106 C-42.30875953 496.33937949 -46.96143434 490.16608559 -48.01257324 483.01834106 C-48.28355114 477.25136565 -47.7223223 473.27851377 -45.55554199 467.83474731 C-45.15736519 466.82137047 -45.15736519 466.82137047 -44.75114441 465.78752136 C-43.85481435 463.52410589 -42.93586736 461.27088402 -42.01257324 459.01834106 C-41.68162659 458.20371399 -41.35067993 457.38908691 -41.00970459 456.54977417 C-38.48307057 450.33714657 -35.90832155 444.14509313 -33.32507324 437.95584106 C-32.55855153 436.11284426 -31.79227428 434.26974577 -31.02624512 432.42654419 C-29.62508817 429.05802664 -28.22345736 425.68971112 -26.81848145 422.32278442 C-26.51496765 421.59305923 -26.21145386 420.86333405 -25.89874268 420.11149597 C-25.31954813 418.74342361 -24.72588473 417.38136338 -24.1161499 416.02662659 C-22.10023968 411.53612244 -21.72321252 408.0507579 -22.13757324 403.20584106 C-22.19179443 402.41161743 -22.24601562 401.6173938 -22.30187988 400.79910278 C-22.5130568 397.86959612 -22.7594855 394.94453002 -23.01257324 392.01834106 C-23.11908203 390.78454712 -23.22559082 389.55075317 -23.33532715 388.27957153 C-23.83222275 382.56743668 -24.34127028 376.85639128 -24.85266113 371.14553833 C-26.10771393 357.11351044 -27.24968347 343.08742169 -28.01257324 329.01834106 C-28.05746887 328.19338135 -28.1023645 327.36842163 -28.14862061 326.51846313 C-31.92405415 255.91476791 -30.64494111 185.31907314 -25.06764221 114.85560608 C-24.75256787 110.75437845 -24.47475439 106.65108137 -24.20162964 102.546875 C-24.0443985 100.44398786 -23.82152273 98.34613435 -23.58215332 96.25100708 C-22.73436278 85.58065631 -28.26272027 76.69557772 -32.95007324 67.45584106 C-33.79169509 65.75847566 -34.63090278 64.059911 -35.46765137 62.36013794 C-36.71989076 59.81640963 -37.97303607 57.27325442 -39.23434448 54.73400879 C-42.30250745 48.53926505 -45.23344433 42.29101669 -48.07897949 35.99099731 C-48.46093979 35.14967758 -48.84290009 34.30835785 -49.23643494 33.44154358 C-49.58738724 32.65743607 -49.93833954 31.87332855 -50.29992676 31.06546021 C-50.76157982 30.03516441 -50.76157982 30.03516441 -51.2325592 28.98405457 C-53.89262732 22.28041647 -54.15320914 15.03263096 -51.38757324 8.33084106 C-48.2995312 2.21954108 -44.17384183 -3.56682609 -37.64660645 -6.23214722 C-24.16606229 -10.06802362 -12.32644125 -5.10118786 0 0 Z " fill="#FEDC09" transform="translate(108.0125732421875,6.981658935546875)"/>
<path d="M0 0 C0.79532816 -0.00523668 1.59065631 -0.01047336 2.41008532 -0.01586872 C5.08395697 -0.03091034 7.75763796 -0.03157478 10.43154907 -0.03224182 C12.34504013 -0.03986049 14.25852811 -0.04828748 16.17201233 -0.0574646 C21.37655574 -0.07944482 26.58104039 -0.08821318 31.78562498 -0.09329104 C35.03554326 -0.09693033 38.28544604 -0.10316813 41.53535843 -0.11029243 C52.868438 -0.13479875 64.20147171 -0.14784147 75.53457642 -0.15138245 C86.10640671 -0.15501908 96.67794691 -0.18492068 107.24968851 -0.22678703 C116.31982592 -0.2614503 125.38986702 -0.2769302 134.46007025 -0.27762848 C139.8800909 -0.27842262 145.29981618 -0.28722419 150.71976852 -0.31562614 C155.81701026 -0.34173897 160.91371034 -0.34404995 166.01098824 -0.3279705 C167.88269414 -0.32615062 169.75443071 -0.33289514 171.62607002 -0.34878922 C174.17998875 -0.36915646 176.73199559 -0.35875447 179.28588867 -0.34057617 C180.02801302 -0.35377614 180.77013737 -0.36697611 181.53475034 -0.38057607 C185.31161379 -0.31909807 187.15244147 0.18825698 190.22924805 2.43779659 C192.5897013 5.71861028 192.89761825 7.26991199 192.90484619 11.27061462 C192.91894531 12.47348618 192.93304443 13.67635773 192.9475708 14.91567993 C192.93744965 16.22700394 192.92732849 17.53832794 192.91690063 18.88938904 C192.92367931 20.29087459 192.93258385 21.69235122 192.94345093 23.09381104 C192.96622196 26.89353893 192.95741758 30.69258714 192.9415555 34.49232674 C192.92888487 38.47117553 192.94063983 42.44996664 192.94848633 46.42881775 C192.95757955 53.11027969 192.94560376 59.79146518 192.92178345 66.47288513 C192.89457254 74.19444544 192.90338696 81.91534562 192.93091547 89.63688993 C192.95361506 96.26976781 192.95680256 102.90244711 192.94372213 109.53535128 C192.93593218 113.49544881 192.93487315 117.45523619 192.95140457 121.41531372 C192.96586275 125.1387486 192.9558045 128.86133356 192.92693329 132.58467674 C192.91718248 134.60064912 192.93201126 136.61669349 192.9475708 138.63262939 C192.93347168 139.83550095 192.91937256 141.0383725 192.90484619 142.2776947 C192.90296106 143.32112282 192.90107594 144.36455093 192.89913368 145.43959808 C192.01228353 149.43483673 190.55468683 150.87049164 187.26992798 153.27415466 C184.41235549 153.76720885 182.1510452 153.95201083 179.29934692 153.90907288 C178.50230992 153.91687283 177.70527291 153.92467278 176.88408327 153.9327091 C174.21600262 153.9526371 171.54934708 153.93686209 168.8812561 153.92112732 C166.96746488 153.9279031 165.05368018 153.93680601 163.13990784 153.94767761 C157.94359048 153.97048214 152.74776919 153.96162974 147.5514431 153.94578218 C142.11518383 153.93312924 136.67896722 153.94486162 131.2427063 153.95271301 C122.11319345 153.96181132 112.98388279 153.94981682 103.85440063 153.92601013 C93.29725901 153.8987986 82.74060017 153.90761263 72.18347025 153.93514216 C63.12175312 153.95782698 54.06018138 153.96103635 44.99844503 153.94794881 C39.58520181 153.94015089 34.17218557 153.9391222 28.75895691 153.95563126 C23.66983486 153.97006753 18.58133567 153.96006946 13.49228096 153.93115997 C11.62382098 153.92454469 9.75530863 153.92645438 7.88686943 153.9374733 C5.33737343 153.95112325 2.78987731 153.93402147 0.24050903 153.90907288 C-0.50025108 153.92022648 -1.24101119 153.93138009 -2.00421858 153.94287169 C-5.7788925 153.87114082 -7.61740116 153.35674847 -10.68981266 151.10450554 C-13.0405307 147.8434707 -13.35257832 146.33032627 -13.34480286 142.35362244 C-13.3545665 141.16757919 -13.36433014 139.98153595 -13.37438965 138.759552 C-13.35955536 137.46692947 -13.34472107 136.17430695 -13.32943726 134.84251404 C-13.33130207 133.46073974 -13.33534034 132.07896692 -13.34138489 130.69720459 C-13.3513529 126.95112746 -13.33020075 123.20580798 -13.30290484 119.45984077 C-13.27905429 115.5370799 -13.28201962 111.61433353 -13.28160095 107.69151306 C-13.27697413 101.10418391 -13.25334156 94.51714395 -13.21713257 87.92991638 C-13.17539975 80.31759375 -13.15781762 72.7055315 -13.15451282 65.09310102 C-13.15091076 56.98406156 -13.13203204 48.87511559 -13.10739255 40.76611519 C-13.10116899 38.43161099 -13.09752947 36.09711392 -13.09435844 33.76260376 C-13.08844907 30.09192481 -13.07211165 26.42143112 -13.04775429 22.7508297 C-13.03678694 20.76349756 -13.03547626 18.77611946 -13.03445435 16.78875732 C-13.01949165 15.00969246 -13.01949165 15.00969246 -13.00422668 13.19468689 C-12.99957618 12.16600746 -12.99492567 11.13732803 -12.99013424 10.0774765 C-12.71156086 7.07461496 -12.11780542 4.94792887 -10.73007202 2.27415466 C-7.0449991 -0.18256062 -4.26268347 -0.01378909 0 0 Z " fill="#53C7FB" transform="translate(166.73007202148438,76.72584533691406)"/>
<path d="M0 0 C4.95103032 2.04112997 9.94048491 3.98140572 14.93664551 5.90896606 C15.90554718 6.28278915 16.87444885 6.65661224 17.87271118 7.04176331 C28.69329856 11.14737806 39.50615654 13.59475617 50.98742676 15.01834106 C52.20606635 15.18181125 53.42470594 15.34528143 54.68027401 15.51370525 C64.53391827 16.79781153 74.19663667 17.31217502 84.13220215 17.29299927 C85.66225428 17.29736351 87.19230423 17.30255223 88.72235107 17.30848694 C92.82408998 17.32170899 96.9257358 17.32247432 101.02749181 17.31992364 C104.48069614 17.31884171 107.93388256 17.32376842 111.38708299 17.32852906 C119.55262506 17.33956773 127.71812111 17.34009462 135.88366699 17.33401489 C144.23773368 17.3279892 152.59163135 17.34026344 160.94566923 17.36158496 C168.17860976 17.37934942 175.41149724 17.38517896 182.64445871 17.38194722 C186.93747373 17.38015657 191.23036836 17.38254261 195.52336311 17.39666176 C231.49006508 17.50474181 263.10577042 13.21950816 296.56237793 -0.42037964 C321.6012189 -10.56575198 321.6012189 -10.56575198 334.09411621 -5.79537964 C340.86984861 -2.26070043 345.16638957 3.12794343 348.36242676 9.95584106 C350.44269528 20.14915682 347.73063388 29.00545954 343.38977051 38.19021606 C343.03910522 38.94673462 342.68843994 39.70325317 342.32714844 40.48269653 C341.58205567 42.08822048 340.83389129 43.69232208 340.08285522 45.29507446 C338.9150468 47.78944408 337.75759476 50.28838195 336.60290527 52.78884888 C333.39159494 59.73666305 330.16011348 66.67352429 326.86242676 73.58084106 C326.22639526 74.93484009 326.22639526 74.93484009 325.57751465 76.31619263 C324.8413451 77.88240464 324.0917951 79.44244278 323.32507324 80.993927 C318.88246962 90.51427282 321.42882702 101.06936015 322.52584839 111.16415405 C324.28396322 127.46816829 325.63039272 143.77863559 326.67492676 160.14334106 C326.76551865 161.54765884 326.76551865 161.54765884 326.85794067 162.98034668 C328.17289948 183.52909208 329.14690414 204.03809916 329.15539551 224.63162231 C329.15863076 226.54220094 329.16199625 228.45277936 329.16548157 230.36335754 C329.17140773 234.34397959 329.17332866 238.32458017 329.17272949 242.3052063 C329.17264894 246.28832612 329.17948943 250.27132919 329.1932373 254.25442505 C329.31473806 290.07866504 328.15415837 325.69957518 324.98742676 361.39334106 C324.82012716 363.35813102 324.65346525 365.32297538 324.48742676 367.28787231 C323.65026047 377.08112682 322.74723038 386.86177965 321.59680176 396.62390137 C321.35740903 398.75373044 321.1638146 400.88243735 320.98742676 403.01834106 C320.87770287 404.03770752 320.87770287 404.03770752 320.76576233 405.07766724 C320.30746729 412.49710529 323.11272447 418.81342838 325.76477051 425.62771606 C326.25702782 426.9251362 326.74785301 428.22310052 327.23731995 429.52157593 C328.52127115 432.917708 329.82213434 436.30708938 331.12750244 439.69503784 C333.21732329 445.12857204 335.27955705 450.5726564 337.34454536 456.01566315 C338.06500629 457.90800325 338.79181214 459.79780175 339.5198822 461.68722534 C339.96026321 462.83902283 340.40064423 463.99082031 340.85437012 465.17752075 C341.43728065 466.69234039 341.43728065 466.69234039 342.03196716 468.23776245 C344.65697749 475.87706777 344.90186928 483.19438889 342.08508301 490.78005981 C339.08823811 496.89106382 334.37160923 501.99826797 327.87756348 504.31594849 C314.45152891 507.57888998 299.66734837 503.93533207 286.39468384 501.51370239 C280.54465076 500.44858338 274.68535826 499.43648417 268.82727051 498.41677856 C267.65405746 498.21135437 266.48084442 498.00593018 265.27207947 497.79428101 C255.22703456 496.04124405 245.16893834 494.39991765 235.08337402 492.89730835 C233.43589755 492.65086956 231.78904045 492.40024123 230.14294434 492.14474487 C221.35698869 490.78437887 212.6431187 489.83850934 203.75769043 489.46047974 C202.80383831 489.4188631 201.84998619 489.37724646 200.86722946 489.33436871 C190.7147546 488.92163963 180.56887457 488.8543597 170.40930176 488.85037231 C168.41794819 488.84714158 166.42659483 488.84377632 164.4352417 488.84028625 C160.29752046 488.8343642 156.15981989 488.8324392 152.02209473 488.83303833 C147.83943357 488.83311961 143.65688191 488.82616272 139.47424316 488.81253052 C106.17543283 488.60737168 106.17543283 488.60737168 72.98742676 491.01834106 C72.13221436 491.11640045 71.27700195 491.21445984 70.39587402 491.31549072 C64.70228765 491.99086739 59.03276827 492.79710779 53.36242676 493.64334106 C51.60595119 493.89830132 49.84943964 494.15301376 48.09289551 494.40750122 C38.0295811 495.8822102 27.99264843 497.49648655 17.96398926 499.19021606 C16.87927338 499.3731723 15.7945575 499.55612854 14.67697144 499.74462891 C9.3823615 500.64054846 4.09037872 501.54927423 -1.1986084 502.47781372 C-3.13658438 502.81170676 -5.07457209 503.14553171 -7.01257324 503.47927856 C-7.87756439 503.63523499 -8.74255554 503.79119141 -9.63375854 503.95187378 C-19.29828685 505.60124577 -28.3433018 506.22572224 -37.01257324 501.01834106 C-42.30875953 496.33937949 -46.96143434 490.16608559 -48.01257324 483.01834106 C-48.28355114 477.25136565 -47.7223223 473.27851377 -45.55554199 467.83474731 C-45.15736519 466.82137047 -45.15736519 466.82137047 -44.75114441 465.78752136 C-43.85481435 463.52410589 -42.93586736 461.27088402 -42.01257324 459.01834106 C-41.68162659 458.20371399 -41.35067993 457.38908691 -41.00970459 456.54977417 C-38.48307057 450.33714657 -35.90832155 444.14509313 -33.32507324 437.95584106 C-32.55855153 436.11284426 -31.79227428 434.26974577 -31.02624512 432.42654419 C-29.62508817 429.05802664 -28.22345736 425.68971112 -26.81848145 422.32278442 C-26.51496765 421.59305923 -26.21145386 420.86333405 -25.89874268 420.11149597 C-25.31954813 418.74342361 -24.72588473 417.38136338 -24.1161499 416.02662659 C-22.10023968 411.53612244 -21.72321252 408.0507579 -22.13757324 403.20584106 C-22.19179443 402.41161743 -22.24601562 401.6173938 -22.30187988 400.79910278 C-22.5130568 397.86959612 -22.7594855 394.94453002 -23.01257324 392.01834106 C-23.11908203 390.78454712 -23.22559082 389.55075317 -23.33532715 388.27957153 C-23.83222275 382.56743668 -24.34127028 376.85639128 -24.85266113 371.14553833 C-26.10771393 357.11351044 -27.24968347 343.08742169 -28.01257324 329.01834106 C-28.05746887 328.19338135 -28.1023645 327.36842163 -28.14862061 326.51846313 C-31.92405415 255.91476791 -30.64494111 185.31907314 -25.06764221 114.85560608 C-24.75256787 110.75437845 -24.47475439 106.65108137 -24.20162964 102.546875 C-24.0443985 100.44398786 -23.82152273 98.34613435 -23.58215332 96.25100708 C-22.73436278 85.58065631 -28.26272027 76.69557772 -32.95007324 67.45584106 C-33.79169509 65.75847566 -34.63090278 64.059911 -35.46765137 62.36013794 C-36.71989076 59.81640963 -37.97303607 57.27325442 -39.23434448 54.73400879 C-42.30250745 48.53926505 -45.23344433 42.29101669 -48.07897949 35.99099731 C-48.46093979 35.14967758 -48.84290009 34.30835785 -49.23643494 33.44154358 C-49.58738724 32.65743607 -49.93833954 31.87332855 -50.29992676 31.06546021 C-50.76157982 30.03516441 -50.76157982 30.03516441 -51.2325592 28.98405457 C-53.89262732 22.28041647 -54.15320914 15.03263096 -51.38757324 8.33084106 C-48.2995312 2.21954108 -44.17384183 -3.56682609 -37.64660645 -6.23214722 C-24.16606229 -10.06802362 -12.32644125 -5.10118786 0 0 Z M-34.01257324 13.01834106 C-35.4179271 14.22060237 -35.4179271 14.22060237 -35.49304199 17.68630981 C-35.39464459 24.92350988 -31.55363243 31.04732093 -28.32507324 37.33084106 C-27.2975102 39.37974943 -26.27647631 41.43183067 -25.25561523 43.48408508 C-24.55722009 44.8869703 -23.8567645 46.28883157 -23.15429688 47.68968201 C-19.4949268 54.99929379 -16.05415602 62.40541887 -12.63757324 69.83084106 C-12.08496826 71.02813843 -11.53236328 72.22543579 -10.9630127 73.45901489 C-10.0011653 75.54304307 -9.04045151 77.62759524 -8.0814209 79.71292114 C-7.41170142 81.15745312 -6.72464021 82.59420713 -6.01257324 84.01834106 C-6.06672887 86.84399047 -6.18557031 89.63319202 -6.36022949 92.45193481 C-6.43359276 93.72719276 -6.43359276 93.72719276 -6.50843811 95.0282135 C-7.08847187 104.81988482 -7.84778385 114.59956339 -8.6348877 124.37649536 C-9.15838757 130.91989715 -9.60260528 137.4668769 -10.01257324 144.01834106 C-10.05397305 144.67286884 -10.09537285 145.32739662 -10.13802719 146.00175858 C-12.22024427 179.22751501 -12.44994132 212.45310848 -12.44961405 245.73398399 C-12.45007631 247.84482923 -12.45190365 249.95566904 -12.45417404 252.06651306 C-12.50127091 297.46921141 -11.35494298 342.61010488 -7.29467773 387.85501099 C-5.10994595 412.3531241 -5.10994595 412.3531241 -10.63757324 425.51834106 C-11.11815186 426.70580933 -11.59873047 427.89327759 -12.09387207 429.11672974 C-14.63192087 435.3807622 -17.25768067 441.6081508 -19.88153076 447.83660889 C-21.17570161 450.9127162 -22.46229037 453.9919784 -23.74932861 457.07107544 C-24.6856715 459.29661046 -25.63766799 461.51496488 -26.59118652 463.73318481 C-27.17360143 465.11576726 -27.75549503 466.49856946 -28.33679199 467.88162231 C-28.85330322 469.09116577 -29.36981445 470.30070923 -29.90197754 471.54690552 C-31.10112247 475.29512309 -31.39896989 478.108621 -31.01257324 482.01834106 C-28.69983882 484.91553516 -28.69983882 484.91553516 -26.01257324 487.01834106 C-25.68257324 487.34834106 -25.35257324 487.67834106 -25.01257324 488.01834106 C-18.61761079 488.34625258 -12.74937283 487.42298122 -6.48132324 486.22537231 C-4.38781362 485.8401846 -2.29422294 485.45543721 -0.20056152 485.07107544 C0.89125427 484.86828979 1.98307007 484.66550415 3.10797119 484.45657349 C24.87169752 480.42685068 46.62424711 477.08540679 68.62472534 474.66413879 C71.23003733 474.3727923 73.78804504 474.06205568 76.35037231 473.50026321 C79.16000013 472.98680325 81.75506164 472.8866465 84.61047363 472.87789917 C85.73132355 472.87218903 86.85217346 472.86647888 88.00698853 472.8605957 C89.22772064 472.85947784 90.44845276 472.85835999 91.70617676 472.85720825 C93.64640213 472.84976089 93.64640213 472.84976089 95.62582397 472.84216309 C99.17227887 472.82906663 102.71871483 472.82259738 106.26519012 472.81815243 C108.49041493 472.81521212 110.71563469 472.81110514 112.94085693 472.80664825 C119.92957089 472.79296927 126.91827317 472.78330936 133.90699959 472.77944636 C141.92230604 472.77498993 149.93743989 472.75755725 157.95269394 472.72844577 C164.17727871 472.70664006 170.40181568 472.69673185 176.62643814 472.69540524 C180.32878521 472.6943689 184.0309702 472.6887188 187.73327637 472.67058563 C203.28399222 472.59875198 218.48852677 472.86691315 233.83754921 475.63619804 C236.75228593 476.1542956 239.67678538 476.59770496 242.60375881 477.04046345 C245.88018174 477.53689419 249.1520904 478.06131722 252.42492676 478.58084106 C261.14041049 479.96260325 269.85882344 481.29555414 278.59655762 482.52932739 C284.09036453 483.32161591 289.5700128 484.19828297 295.04992676 485.08084106 C296.13725098 485.25421997 297.2245752 485.42759888 298.34484863 485.60623169 C306.34874532 486.89020036 306.34874532 486.89020036 309.68640137 487.55984497 C314.80149689 488.57906506 319.30922706 488.84031643 324.04992676 486.51834106 C326.23663706 483.69677939 326.44367377 482.05280533 326.34872437 478.53903198 C325.55240747 472.9833108 323.24538314 467.81841317 321.21008301 462.61990356 C320.71810032 461.33618799 320.22726917 460.05203056 319.73753357 458.76745605 C318.45259689 455.40667254 317.15166818 452.05230585 315.84735107 448.69900513 C314.51983903 445.27683859 313.20871563 441.848406 311.89562988 438.42068481 C309.97856001 433.42490499 308.05573568 428.43142483 306.1204834 423.44265747 C305.73187637 422.44086456 305.34326935 421.43907166 304.94288635 420.40692139 C304.04076373 418.05581867 304.04076373 418.05581867 302.98742676 416.01834106 C302.28572588 407.36226092 303.54763409 398.66167978 304.52557373 390.07159424 C305.00502191 385.82807784 305.45477744 381.58140699 305.90539551 377.33474731 C305.99776489 376.4647258 306.09013428 375.59470428 306.18530273 374.69831848 C315.15728822 289.70283051 315.54491581 201.90636556 305.87023926 116.94802856 C305.77614777 116.12004761 305.68205627 115.29206665 305.58511353 114.43899536 C305.13344672 110.49685797 304.66626489 106.55760057 304.16955566 102.62088013 C304.08325897 101.9071524 303.99696228 101.19342468 303.90805054 100.45806885 C303.67687547 98.5464714 303.43559277 96.63610373 303.19348145 94.7258606 C302.72944397 86.3764848 304.40936784 80.10167354 307.96008301 72.58474731 C308.36141953 71.70793808 308.76275604 70.83112885 309.17625427 69.92774963 C310.45548779 67.13973526 311.75209885 64.36024084 313.04992676 61.58084106 C313.8942338 59.75131997 314.73734228 57.92124526 315.57922363 56.09060669 C315.99376801 55.19022675 316.40831238 54.2898468 316.8354187 53.36218262 C317.66671979 51.55615465 318.49779582 49.75002308 319.3286438 47.94378662 C321.32929534 43.59882031 323.34395466 39.26201005 325.39318848 34.93972778 C326.13215068 33.35028761 326.87061961 31.76061798 327.60852051 30.17068481 C327.95173843 29.46239029 328.29495636 28.75409576 328.64857483 28.02433777 C330.89311184 23.13127118 331.52998179 19.40892269 330.98742676 14.01834106 C328.59898041 11.23114169 328.59898041 11.23114169 324.98742676 10.01834106 C318.85106648 10.36622212 313.79486677 11.98266025 308.12414551 14.25662231 C306.41396485 14.91900492 304.70367465 15.58110475 302.99328613 16.24295044 C300.35050358 17.27775883 297.70964267 18.31708165 295.07116699 19.36282349 C261.43521336 32.6412601 226.4698899 34.66255391 190.67755318 34.52271152 C186.12406466 34.50853716 181.57059265 34.51535616 177.01708984 34.5188446 C169.38962316 34.52151965 161.7623163 34.50830056 154.1348877 34.4848938 C145.3851415 34.45822453 136.63566063 34.45657162 127.88588762 34.46828216 C119.3669202 34.47914817 110.84804637 34.47280922 102.3290863 34.45872688 C98.74757099 34.45305062 95.16612608 34.45298205 91.58460999 34.45779228 C72.85311673 34.47651271 54.49344183 34.33038893 35.98742676 31.01834106 C34.76261597 30.80238942 34.76261597 30.80238942 33.51306152 30.58207512 C20.73233177 28.28832409 9.18131569 23.8443937 -2.76257324 18.83084106 C-5.43100356 17.72157236 -8.1010692 16.61662495 -10.77410889 15.51850891 C-12.41764317 14.84229539 -14.05843359 14.1593585 -15.69586182 13.4684906 C-22.6287708 10.59786972 -27.18263724 8.88861232 -34.01257324 13.01834106 Z " fill="#010100" transform="translate(108.0125732421875,6.981658935546875)"/>
<path d="M0 0 C17.14525781 14.98561476 30.0746818 35.92398409 32 59 C32.6975539 73.36745676 33.18893445 87.39383637 28 101 C27.61457031 102.04800781 27.22914063 103.09601563 26.83203125 104.17578125 C17.10800208 128.94215975 -0.23013106 147.32311789 -24.5 157.9375 C-47.8184187 167.94863851 -73.55415965 167.8751941 -97.125 158.75 C-110.03574381 152.96724465 -120.10174728 146.07411001 -130 136 C-130.68835938 135.31035156 -131.37671875 134.62070312 -132.0859375 133.91015625 C-150.73746593 113.95048895 -155.96069225 87.39399439 -155.18359375 61.06201172 C-153.70134138 36.34072289 -139.41811018 15.55499401 -122 -0.8125 C-87.49112122 -30.78500035 -34.37736205 -29.21161482 0 0 Z " fill="#1BD558" transform="translate(318,287)"/>
<path d="M0 0 C0.79532816 -0.00523668 1.59065631 -0.01047336 2.41008532 -0.01586872 C5.08395697 -0.03091034 7.75763796 -0.03157478 10.43154907 -0.03224182 C12.34504013 -0.03986049 14.25852811 -0.04828748 16.17201233 -0.0574646 C21.37655574 -0.07944482 26.58104039 -0.08821318 31.78562498 -0.09329104 C35.03554326 -0.09693033 38.28544604 -0.10316813 41.53535843 -0.11029243 C52.868438 -0.13479875 64.20147171 -0.14784147 75.53457642 -0.15138245 C86.10640671 -0.15501908 96.67794691 -0.18492068 107.24968851 -0.22678703 C116.31982592 -0.2614503 125.38986702 -0.2769302 134.46007025 -0.27762848 C139.8800909 -0.27842262 145.29981618 -0.28722419 150.71976852 -0.31562614 C155.81701026 -0.34173897 160.91371034 -0.34404995 166.01098824 -0.3279705 C167.88269414 -0.32615062 169.75443071 -0.33289514 171.62607002 -0.34878922 C174.17998875 -0.36915646 176.73199559 -0.35875447 179.28588867 -0.34057617 C180.02801302 -0.35377614 180.77013737 -0.36697611 181.53475034 -0.38057607 C185.31161379 -0.31909807 187.15244147 0.18825698 190.22924805 2.43779659 C192.5897013 5.71861028 192.89761825 7.26991199 192.90484619 11.27061462 C192.91894531 12.47348618 192.93304443 13.67635773 192.9475708 14.91567993 C192.93744965 16.22700394 192.92732849 17.53832794 192.91690063 18.88938904 C192.92367931 20.29087459 192.93258385 21.69235122 192.94345093 23.09381104 C192.96622196 26.89353893 192.95741758 30.69258714 192.9415555 34.49232674 C192.92888487 38.47117553 192.94063983 42.44996664 192.94848633 46.42881775 C192.95757955 53.11027969 192.94560376 59.79146518 192.92178345 66.47288513 C192.89457254 74.19444544 192.90338696 81.91534562 192.93091547 89.63688993 C192.95361506 96.26976781 192.95680256 102.90244711 192.94372213 109.53535128 C192.93593218 113.49544881 192.93487315 117.45523619 192.95140457 121.41531372 C192.96586275 125.1387486 192.9558045 128.86133356 192.92693329 132.58467674 C192.91718248 134.60064912 192.93201126 136.61669349 192.9475708 138.63262939 C192.93347168 139.83550095 192.91937256 141.0383725 192.90484619 142.2776947 C192.90296106 143.32112282 192.90107594 144.36455093 192.89913368 145.43959808 C192.01228353 149.43483673 190.55468683 150.87049164 187.26992798 153.27415466 C184.41235549 153.76720885 182.1510452 153.95201083 179.29934692 153.90907288 C178.50230992 153.91687283 177.70527291 153.92467278 176.88408327 153.9327091 C174.21600262 153.9526371 171.54934708 153.93686209 168.8812561 153.92112732 C166.96746488 153.9279031 165.05368018 153.93680601 163.13990784 153.94767761 C157.94359048 153.97048214 152.74776919 153.96162974 147.5514431 153.94578218 C142.11518383 153.93312924 136.67896722 153.94486162 131.2427063 153.95271301 C122.11319345 153.96181132 112.98388279 153.94981682 103.85440063 153.92601013 C93.29725901 153.8987986 82.74060017 153.90761263 72.18347025 153.93514216 C63.12175312 153.95782698 54.06018138 153.96103635 44.99844503 153.94794881 C39.58520181 153.94015089 34.17218557 153.9391222 28.75895691 153.95563126 C23.66983486 153.97006753 18.58133567 153.96006946 13.49228096 153.93115997 C11.62382098 153.92454469 9.75530863 153.92645438 7.88686943 153.9374733 C5.33737343 153.95112325 2.78987731 153.93402147 0.24050903 153.90907288 C-0.50025108 153.92022648 -1.24101119 153.93138009 -2.00421858 153.94287169 C-5.7788925 153.87114082 -7.61740116 153.35674847 -10.68981266 151.10450554 C-13.0405307 147.8434707 -13.35257832 146.33032627 -13.34480286 142.35362244 C-13.3545665 141.16757919 -13.36433014 139.98153595 -13.37438965 138.759552 C-13.35955536 137.46692947 -13.34472107 136.17430695 -13.32943726 134.84251404 C-13.33130207 133.46073974 -13.33534034 132.07896692 -13.34138489 130.69720459 C-13.3513529 126.95112746 -13.33020075 123.20580798 -13.30290484 119.45984077 C-13.27905429 115.5370799 -13.28201962 111.61433353 -13.28160095 107.69151306 C-13.27697413 101.10418391 -13.25334156 94.51714395 -13.21713257 87.92991638 C-13.17539975 80.31759375 -13.15781762 72.7055315 -13.15451282 65.09310102 C-13.15091076 56.98406156 -13.13203204 48.87511559 -13.10739255 40.76611519 C-13.10116899 38.43161099 -13.09752947 36.09711392 -13.09435844 33.76260376 C-13.08844907 30.09192481 -13.07211165 26.42143112 -13.04775429 22.7508297 C-13.03678694 20.76349756 -13.03547626 18.77611946 -13.03445435 16.78875732 C-13.01949165 15.00969246 -13.01949165 15.00969246 -13.00422668 13.19468689 C-12.99957618 12.16600746 -12.99492567 11.13732803 -12.99013424 10.0774765 C-12.71156086 7.07461496 -12.11780542 4.94792887 -10.73007202 2.27415466 C-7.0449991 -0.18256062 -4.26268347 -0.01378909 0 0 Z M4.26992798 17.27415466 C4.26992798 56.54415466 4.26992798 95.81415466 4.26992798 136.27415466 C60.69992798 136.27415466 117.12992798 136.27415466 175.26992798 136.27415466 C175.26992798 97.00415466 175.26992798 57.73415466 175.26992798 17.27415466 C118.83992798 17.27415466 62.40992798 17.27415466 4.26992798 17.27415466 Z " fill="#010201" transform="translate(166.73007202148438,76.72584533691406)"/>
<path d="M0 0 C17.14525781 14.98561476 30.0746818 35.92398409 32 59 C32.6975539 73.36745676 33.18893445 87.39383637 28 101 C27.61457031 102.04800781 27.22914063 103.09601563 26.83203125 104.17578125 C17.10800208 128.94215975 -0.23013106 147.32311789 -24.5 157.9375 C-47.8184187 167.94863851 -73.55415965 167.8751941 -97.125 158.75 C-110.03574381 152.96724465 -120.10174728 146.07411001 -130 136 C-130.68835938 135.31035156 -131.37671875 134.62070312 -132.0859375 133.91015625 C-150.73746593 113.95048895 -155.96069225 87.39399439 -155.18359375 61.06201172 C-153.70134138 36.34072289 -139.41811018 15.55499401 -122 -0.8125 C-87.49112122 -30.78500035 -34.37736205 -29.21161482 0 0 Z M-118 19 C-118.58910156 19.58136719 -119.17820312 20.16273438 -119.78515625 20.76171875 C-127.92731352 29.38154924 -134.40162284 42.5238342 -137 54 C-136.73500396 56.33308448 -136.73500396 56.33308448 -136 58 C-135.34 57.34 -134.68 56.68 -134 56 C-127.03671706 55.32613391 -127.03671706 55.32613391 -123.5 57.625 C-121.54665707 60.71779297 -121.59797286 62.38175573 -122 66 C-123.7578125 68.5625 -123.7578125 68.5625 -126.125 71 C-126.9396875 71.86496094 -127.754375 72.72992188 -128.59375 73.62109375 C-131 76 -131 76 -132.96875 77.66015625 C-134.87807879 79.1880595 -134.87807879 79.1880595 -137 82 C-137.8689631 95.46892808 -128.93576067 110.97380407 -120.5546875 120.89453125 C-118.40669353 123.30176587 -116.23001845 125.66884692 -114 128 C-109.3817134 126.20460053 -106.49873778 122.45987802 -103.33007812 118.8125 C-100.63394225 115.92950323 -99.26987122 115.03159884 -95.296875 114.56640625 C-92 115 -92 115 -89.5625 116.5625 C-87.22947903 120.20201271 -87.10204777 121.71745859 -88 126 C-94.43493552 134.71746776 -94.43493552 134.71746776 -99 137 C-99 137.66 -99 138.32 -99 139 C-80.12786095 148.68686207 -59.4199229 151.32207299 -38.8515625 145.39453125 C-28.32378418 141.77442463 -18.25435345 136.5170714 -10 129 C-9.24332031 128.32324219 -8.48664063 127.64648438 -7.70703125 126.94921875 C2.93858126 116.90988903 11.34128604 102.54153759 14 88 C13.67 87.01 13.34 86.02 13 85 C12.34 85.66 11.68 86.32 11 87 C4.09589041 87.54794521 4.09589041 87.54794521 1 86 C-0.74198019 82.51603963 -1.08361552 79.67810069 0 76 C3.07433236 71.70507284 6.74300298 67.97873712 10.7109375 64.5 C13.1260328 62.37806656 13.96156008 61.20501292 14.5625 58 C12.81042053 37.19967192 -1.38828819 21.27839266 -16.41796875 8.328125 C-16.94003906 7.88984375 -17.46210938 7.4515625 -18 7 C-22.92461956 8.96984782 -25.81650747 13.00708152 -29.26953125 16.8828125 C-32.74887227 19.58067063 -34.6962546 19.52028847 -39 19 C-41.4375 17.4375 -41.4375 17.4375 -43 15 C-43.6875 11.75 -43.6875 11.75 -43 8 C-40.92534235 5.06047266 -38.56374689 2.5179657 -36 0 C-58.69858226 -19.23129158 -100.98196406 1.27401376 -118 19 Z " fill="#010200" transform="translate(318,287)"/>
<path d="M0 0 C2.02533263 2.51141246 1.92157853 4.50428645 1.85250854 7.65420532 C1.32182281 11.83239915 -0.47767841 15.39769921 -2.27734375 19.16796875 C-2.87791344 20.47463249 -2.87791344 20.47463249 -3.49061584 21.80769348 C-4.77130674 24.58692115 -6.07221614 27.35607001 -7.375 30.125 C-8.21564816 31.93356899 -9.05485276 33.7428097 -9.89257812 35.55273438 C-10.51406235 36.89454269 -10.51406235 36.89454269 -11.14810181 38.26345825 C-12.4078778 40.99245692 -13.65900917 43.72530915 -14.90966797 46.45849609 C-16.59373464 50.13828713 -18.33423113 53.78402781 -20.10986328 57.42041016 C-25.05757982 67.81385053 -27.749882 75.31621514 -25.7633667 86.92474365 C-25.29896474 89.79318033 -25.03779814 92.67278266 -24.75918579 95.5642395 C-24.30457872 100.22951995 -23.76538849 104.88615577 -23.24243164 109.54418945 C-20.61508337 133.07511129 -19.12774603 156.65294362 -18.3125 180.3125 C-18.27080688 181.50382538 -18.22911377 182.69515076 -18.18615723 183.9225769 C-15.89373257 250.89641538 -16.74324662 318.700547 -25.57397461 385.22387695 C-26.82527825 394.84354811 -27.47295325 403.16430582 -23.375 412.125 C-22.64979761 413.82984961 -21.93033199 415.53714458 -21.21484375 417.24609375 C-20.79187012 418.25140137 -20.36889648 419.25670898 -19.93310547 420.29248047 C-16.98887655 427.46801716 -14.22563836 434.71332878 -11.47463989 441.9647522 C-10.78640318 443.77154318 -10.09266154 445.57624738 -9.39328003 447.37875366 C-8.39534024 449.95097603 -7.41467076 452.52920289 -6.4375 455.109375 C-6.13473648 455.87963516 -5.83197296 456.64989532 -5.52003479 457.4434967 C-3.63569061 462.49379883 -2.97539607 466.53995066 -3.4375 471.9375 C-5.53747872 474.64714996 -7.03829321 475.7264011 -10.45703125 476.2421875 C-15.89877066 476.41373095 -21.23628205 475.52805102 -26.4375 473.9375 C-28.19854384 472.17645616 -27.66375782 469.53341553 -27.76953125 467.140625 C-28.25706586 460.22649787 -29.8801266 454.21578423 -32.125 447.6875 C-32.66411011 446.06134766 -32.66411011 446.06134766 -33.21411133 444.40234375 C-35.27598894 438.22083557 -37.43153964 432.07334951 -39.625 425.9375 C-41.62170506 420.34347587 -43.54645344 414.73406848 -45.3125 409.0625 C-45.52801514 408.40894531 -45.74353027 407.75539063 -45.96557617 407.08203125 C-49.05199564 396.86985844 -47.17331028 386.09696337 -46.0625 375.6875 C-41.47588634 330.70644022 -40.07576891 285.43436554 -40.17675781 240.2421875 C-40.18819668 235.076826 -40.18132123 229.9116697 -40.16988468 224.746315 C-40.10350356 189.42612239 -41.66227971 154.3913703 -44.5 119.1875 C-44.67559708 116.95316164 -44.85072568 114.71878642 -45.02539062 112.484375 C-45.34370495 108.43630218 -45.6629435 104.38831563 -45.98852539 100.34082031 C-46.0964592 98.99824158 -46.0964592 98.99824158 -46.20657349 97.62854004 C-46.36222585 95.8146871 -46.53236322 94.0020262 -46.71603394 92.1907959 C-47.77427439 81.68626297 -48.12050782 73.01948766 -44.18359375 63.08984375 C-43.84505875 62.19366837 -43.50652374 61.29749298 -43.1577301 60.37416077 C-42.08036452 57.53431842 -40.97828805 54.70485748 -39.875 51.875 C-39.1617576 50.00648984 -38.45015726 48.13735202 -37.74023438 46.26757812 C-35.01352632 39.11176331 -32.27081757 31.96429104 -29.38330078 24.87158203 C-28.89954735 23.66931725 -28.89954735 23.66931725 -28.40602112 22.44276428 C-27.80869881 20.96197251 -27.20252579 19.48470112 -26.58506775 18.01219177 C-24.5790732 13.01862404 -23.79493184 8.29926962 -23.4375 2.9375 C-21.25627494 2.06319481 -19.07000158 1.21341499 -16.875 0.375 C-15.65683594 -0.10066406 -14.43867188 -0.57632812 -13.18359375 -1.06640625 C-8.32577494 -2.3581099 -4.59819169 -2.00433997 0 0 Z " fill="#FA9707" transform="translate(437.4375,19.0625)"/>
<path d="M0 0 C-0.00249756 0.66684814 -0.00499512 1.33369629 -0.00756836 2.02075195 C0.32180605 11.1140841 3.0972384 18.55359633 6.48971558 26.862854 C7.45587726 29.2325742 8.39834442 31.6106399 9.33618164 33.99169922 C12.1651195 41.14268191 15.07629883 48.24440208 18.1875 55.27734375 C23.32197534 66.99770514 26.18818115 75.56022371 24.34521484 88.25 C23.69960604 93.39295444 23.47854167 98.56712095 23.18694115 103.73999023 C23.06722672 105.85403079 22.94503314 107.96791484 22.8223877 110.08178711 C20.53682452 149.83695214 19.65398318 189.53555895 19.74245453 229.35355377 C19.75013362 233.12818025 19.75417157 236.90279645 19.75738525 240.6774292 C19.79371724 276.81836394 20.04768251 312.90428335 22 349 C22.04574158 349.86695496 22.09148315 350.73390991 22.13861084 351.62713623 C22.55328029 359.47502945 23.00109243 367.31938288 23.53515625 375.16015625 C23.59662842 376.28309082 23.65810059 377.40602539 23.72143555 378.56298828 C23.94381601 382.02795539 23.94381601 382.02795539 24.64770508 385.51123047 C26.86298768 400.69268598 20.38390242 414.78463206 15.3338623 428.84710693 C13.29915688 434.52602484 11.3100337 440.22077616 9.33476067 445.92059326 C8.64581477 447.88918563 7.93799256 449.85015913 7.22743225 451.81103516 C4.55140404 459.42707816 2.34989926 466.04969779 5 474 C0.71642939 475.07089265 -3.61279037 475.66472873 -8 475 C-10.8100346 473.20636089 -12.50940468 471.98119065 -14 469 C-14.30455305 464.05324139 -13.75454783 460.56084348 -11.796875 456.02734375 C-11.31645752 454.89409668 -10.83604004 453.76084961 -10.34106445 452.59326172 C-9.81601318 451.38686035 -9.29096191 450.18045898 -8.75 448.9375 C-7.93199083 447.01896165 -7.11878692 445.09843202 -6.30586243 443.17773438 C-5.74121708 441.84414814 -5.17518795 440.51114703 -4.60783386 439.17871094 C-1.39603173 431.62288742 1.64921763 424.00185404 4.6875 416.375 C5.209207 415.07018997 5.73101429 413.76542004 6.25292969 412.46069336 C11.19887612 400.06493599 11.17763427 390.92075154 10.1953125 377.6796875 C10.11127167 376.50455597 10.02723083 375.32942444 9.94064331 374.11868286 C9.67210322 370.37053902 9.39885975 366.62275858 9.125 362.875 C8.94885766 360.44533865 8.77307388 358.01565128 8.59765625 355.5859375 C8.5107251 354.38200348 8.42379395 353.17806946 8.33422852 351.93765259 C8.0637781 348.1506901 7.80125226 344.36322613 7.5390625 340.57568359 C7.20638598 335.78828903 6.83622893 331.00673716 6.4296875 326.22509766 C4.24857322 298.89787737 4.69683444 271.45471648 4.74286115 244.06096447 C4.75037404 239.07333023 4.74770902 234.08577578 4.73925781 229.09814453 C4.6853132 196.35812742 4.83877446 163.68387445 7 131 C7.04523804 130.31061844 7.09047607 129.62123688 7.13708496 128.91096497 C7.72374794 120.03848379 8.40410938 111.17494073 9.125 102.3125 C9.39916401 98.88642036 9.67138784 95.46020614 9.94064331 92.03373718 C10.10443893 89.95439642 10.27113273 87.87528084 10.44143677 85.79646301 C11.5108676 75.31642143 11.5108676 75.31642143 8.61328125 65.39453125 C8.0929834 64.34160889 7.57268555 63.28868652 7.03662109 62.20385742 C6.46766113 61.08470947 5.89870117 59.96556152 5.3125 58.8125 C4.42684269 57.02554165 3.5412394 55.23855441 2.65863037 53.4500885 C2.04607111 52.20922683 1.43199551 50.96911266 0.81646729 49.72972107 C-2.62927914 42.77685317 -5.88006124 35.73572832 -9.125 28.6875 C-10.1894439 26.37860174 -11.25450499 24.06998787 -12.3203125 21.76171875 C-12.98957764 20.307052 -12.98957764 20.307052 -13.67236328 18.82299805 C-14.62578542 16.79570489 -15.62018961 14.78749654 -16.64038086 12.79296875 C-18.57532526 8.8181503 -18.78271742 5.33046919 -18 1 C-12.73339982 -4.81142089 -6.40848585 -2.6611509 0 0 Z " fill="#FCFCF9" transform="translate(91,20)"/>
<path d="M0 0 C5.61 0 11.22 0 17 0 C17 39.27 17 78.54 17 119 C11.39 119 5.78 119 0 119 C0 79.73 0 40.46 0 0 Z " fill="#32A8F6" transform="translate(325,94)"/>
<path d="M0 0 C1.03472443 -0.00554901 2.06944885 -0.01109802 3.13552856 -0.01681519 C6.5537964 -0.02861972 9.97074099 -0.00432495 13.38891602 0.02148438 C15.76636189 0.02319544 18.14380966 0.02312984 20.52125549 0.0213623 C25.50377453 0.02301607 30.48584395 0.04172407 35.46826172 0.07324219 C41.85180176 0.11289782 48.23475217 0.11729013 54.61839199 0.10977936 C59.52807507 0.10670804 64.43762585 0.11883644 69.34727669 0.13591003 C71.70077751 0.14293693 74.05429333 0.14606495 76.40780449 0.1452179 C79.69922794 0.14701777 82.98994829 0.16841771 86.28125 0.1953125 C87.25235214 0.1923819 88.22345428 0.18945129 89.22398376 0.18643188 C94.44667707 0.25219697 98.21243919 0.6359593 102.70532227 3.61523438 C104.27232669 6.74924322 104.55696787 10.24678533 103.70532227 13.61523438 C101.54356057 16.03818755 99.74768468 17.43789649 96.50022697 17.99038887 C93.69456666 18.14416939 90.91340501 18.16693975 88.10351562 18.14868164 C87.0363179 18.15729721 85.96912018 18.16591278 84.86958313 18.17478943 C81.34453026 18.19747944 77.82027026 18.19070547 74.29516602 18.18164062 C71.84566511 18.1868742 69.39616623 18.1931497 66.94667053 18.20042419 C61.81461092 18.21083358 56.6828285 18.20625794 51.55078125 18.19165039 C44.96734594 18.17444744 38.38478213 18.19797489 31.80144405 18.23313999 C26.7442901 18.25507481 21.68734601 18.25368216 16.63015938 18.24537468 C14.20241908 18.2445533 11.77466366 18.25145206 9.3469677 18.26614571 C5.95667386 18.28352171 2.56796379 18.26910595 -0.82226562 18.24633789 C-2.33178299 18.26387619 -2.33178299 18.26387619 -3.87179565 18.2817688 C-10.64710695 18.18896542 -10.64710695 18.18896542 -13.91404724 15.29454041 C-15.75339632 11.72502698 -15.93175434 9.57926657 -15.29467773 5.61523438 C-11.05922923 -0.38573309 -6.76383064 -0.09218776 0 0 Z " fill="#010303" transform="translate(212.294677734375,161.384765625)"/>
<path d="M0 0 C14.41852541 6.31637237 25.28856503 22.76529181 30.8125 36.875 C32.99670096 42.74194756 34.74782693 47.66386639 34 54 C32.36261689 56.44659738 30.31831942 58.30261342 28.125 60.25 C22.61166011 64.76815991 22.61166011 64.76815991 19.69921875 70.9375 C19.66178382 75.11262845 19.66178382 75.11262845 21 79 C24.18625571 80.59312786 27.51066956 80.54169041 31 80 C31.99 79.34 32.98 78.68 34 78 C31.54303795 94.57532609 23.61764363 108.16829594 12 120 C11.32324219 120.70125 10.64648438 121.4025 9.94921875 122.125 C0.57697257 131.16189274 -11.24800133 136.72031309 -24 139 C-21.51277803 136.42987063 -19.01963571 134.16082026 -16.125 132.0625 C-15.42632812 131.54300781 -14.72765625 131.02351562 -14.0078125 130.48828125 C-13.34523438 129.99714844 -12.68265625 129.50601563 -12 129 C2.50320832 118.12259376 12.73433338 99.03220897 16.3125 81.4375 C19.61236722 57.4182742 15.35460521 35.38489297 2 15 C-0.45890951 11.78320743 -3.1358052 8.8641948 -6 6 C-4.02 4.02 -2.04 2.04 0 0 Z " fill="#149F42" transform="translate(298,294)"/>
<path d="M0 0 C1.16801147 -0.01260864 2.33602295 -0.02521729 3.53942871 -0.03820801 C4.79678833 -0.03011108 6.05414795 -0.02201416 7.34960938 -0.01367188 C8.64402954 -0.01749878 9.93844971 -0.02132568 11.27209473 -0.02526855 C14.00922783 -0.03115875 16.74583796 -0.02261726 19.48291016 -0.00390625 C22.98707964 0.01888443 26.49002371 0.00575858 29.99414825 -0.01819611 C33.34189958 -0.03614642 36.68932325 -0.02356948 40.03710938 -0.01367188 C41.29446899 -0.0217688 42.55182861 -0.02986572 43.84729004 -0.03820801 C45.59930725 -0.01929504 45.59930725 -0.01929504 47.38671875 0 C48.41390015 0.00318237 49.44108154 0.00636475 50.49938965 0.00964355 C53.8907359 0.64906499 55.07706112 1.84602804 57.19335938 4.51757812 C57.91541908 7.58102261 57.7848819 10.431119 57.19335938 13.51757812 C54.58571398 16.39497994 51.70394968 17.42833316 47.81619263 17.65802002 C46.87863129 17.66484802 45.94106995 17.67167603 44.97509766 17.67871094 C43.37796432 17.69312225 43.37796432 17.69312225 41.74856567 17.70782471 C40.59855072 17.71207458 39.44853577 17.71632446 38.26367188 17.72070312 C37.08118866 17.7264032 35.89870544 17.73210327 34.6803894 17.73797607 C32.1770721 17.74742777 29.67374234 17.75396073 27.17041016 17.7578125 C23.34059976 17.76752174 19.51132512 17.79854592 15.68164062 17.83007812 C13.25065423 17.83660781 10.819664 17.84185842 8.38867188 17.84570312 C7.24270538 17.85804993 6.09673889 17.87039673 4.91604614 17.88311768 C3.84498627 17.88011658 2.77392639 17.87711548 1.67041016 17.87402344 C0.73125763 17.87766907 -0.2078949 17.8813147 -1.17550659 17.8850708 C-4.34252483 17.44273073 -6.22816856 16.37894355 -8.80664062 14.51757812 C-10.37135295 11.38815347 -10.5036602 7.90675589 -9.80664062 4.51757812 C-6.77509479 0.69639345 -4.81708369 0.0149241 0 0 Z " fill="#010405" transform="translate(232.806640625,119.482421875)"/>
<path d="M0 0 C2.5 1.5625 2.5 1.5625 4 4 C4.7307 7.4542182 4.81071109 9.71306701 2.8828125 12.7734375 C1.02214562 14.96735815 -0.95690761 16.97343748 -3 19 C-4.09733922 20.12012959 -5.19361287 21.24130364 -6.2890625 22.36328125 C-16.59307733 32.84072574 -16.59307733 32.84072574 -21.3125 33.375 C-25 33 -25 33 -27.9375 30.875 C-30.39660239 27.4471603 -30.48708144 26.12982881 -30 22 C-28.41796875 19.61328125 -28.41796875 19.61328125 -26.1875 17.3125 C-25.37539063 16.46429688 -24.56328125 15.61609375 -23.7265625 14.7421875 C-22.37691406 13.38480469 -22.37691406 13.38480469 -21 12 C-20.00728445 10.98228565 -19.01510753 9.96404565 -18.0234375 8.9453125 C-8.13679496 -1.12564357 -8.13679496 -1.12564357 0 0 Z " fill="#000401" transform="translate(295,325)"/>
<path d="M0 0 C2.9375 2.125 2.9375 2.125 5 5 C5.45464168 8.57425743 5.42868149 10.35327311 3.41796875 13.38671875 C2.68191406 14.14597656 1.94585937 14.90523438 1.1875 15.6875 C0.37539062 16.53570312 -0.43671875 17.38390625 -1.2734375 18.2578125 C-2.62308594 19.61519531 -2.62308594 19.61519531 -4 21 C-4.99271555 22.01771435 -5.98489247 23.03595435 -6.9765625 24.0546875 C-15.60289411 32.84183707 -15.60289411 32.84183707 -20.3125 33.375 C-24 33 -24 33 -26.9375 30.875 C-29 28 -29 28 -29.75 25.1875 C-28.57991505 20.21463898 -25.54294393 17.56587561 -22 14 C-20.9035393 12.87770824 -19.80719376 11.75530396 -18.7109375 10.6328125 C-7.49390745 -0.76209228 -7.49390745 -0.76209228 0 0 Z " fill="#000301" transform="translate(243,342)"/>
<path d="M0 0 C2.875 1.5 2.875 1.5 5 4 C5.81016245 8.05081227 6.02498851 10.33785647 3.84375 13.875 C2.00028503 16.04378231 0.03690218 18.01062554 -2 20 C-3.01234335 21.03196765 -4.02262238 22.06596287 -5.03125 23.1015625 C-15.49743936 33.77134947 -15.49743936 33.77134947 -19.875 34.4375 C-23 34 -23 34 -25.875 31.9375 C-28 29 -28 29 -28.75 25.6875 C-27.65375677 20.29763746 -24.83678666 17.80574469 -21 14 C-19.90266078 12.87987041 -18.80638713 11.75869636 -17.7109375 10.63671875 C-6.612711 -0.648305 -6.612711 -0.648305 0 0 Z " fill="#000401" transform="translate(251,299)"/>
<path d="M0 0 C3.46875 0.71875 3.46875 0.71875 5.96875 2.21875 C7.62843219 4.98488699 8.34069238 7.19948425 8.171875 10.44921875 C6.5921125 15.54834106 2.18894636 19.07710982 -1.53125 22.71875 C-2.35496094 23.56566406 -3.17867188 24.41257812 -4.02734375 25.28515625 C-12.14209071 33.58644912 -12.14209071 33.58644912 -17.46875 34.09375 C-20.38269391 33.99715517 -21.45725406 33.76314756 -24.03125 32.21875 C-25.68248944 29.46668427 -26.27240763 27.32069501 -26.20507812 24.10351562 C-24.7919115 19.10213461 -20.64818918 15.66564844 -16.99853516 12.14306641 C-15.53381071 10.72123572 -14.11677522 9.26166149 -12.69921875 7.79296875 C-4.92224833 0.10301339 -4.92224833 0.10301339 0 0 Z " fill="#000301" transform="translate(282.53125,375.28125)"/>
<path d="M0 0 C6.75 0.75 6.75 0.75 9 3 C8.01 3.99 7.02 4.98 6 6 C4 4 2 2 0 0 Z " fill="#14993F" transform="translate(273,284)"/>
</svg>
