<?xml version="1.0" encoding="UTF-8"?>
<svg version="1.1" xmlns="http://www.w3.org/2000/svg" width="512" height="512">
<path d="M0 0 C1.05489624 -0.00935994 1.05489624 -0.00935994 2.13110352 -0.01890898 C4.47576936 -0.03479977 6.81938988 -0.02225106 9.1640625 -0.00964355 C10.84977828 -0.01506645 12.53548932 -0.02219005 14.22119141 -0.03088379 C18.79145963 -0.04910026 23.36136618 -0.04205658 27.93164062 -0.02936745 C32.71745774 -0.01923109 37.50324416 -0.02863489 42.2890625 -0.03491211 C50.32557731 -0.04218666 58.36194503 -0.03260586 66.3984375 -0.0135498 C75.68597197 0.00821857 84.97315519 0.00116706 94.26068115 -0.02085543 C102.23877974 -0.0390149 110.21677267 -0.04156507 118.19488525 -0.03110075 C122.95810706 -0.02486883 127.72116384 -0.02402189 132.484375 -0.0372467 C136.96279317 -0.04881255 141.44075904 -0.04076615 145.91912842 -0.01766968 C147.56141408 -0.0123865 149.20373788 -0.01388971 150.8460083 -0.02272034 C153.09055875 -0.03367555 155.33366615 -0.01991476 157.578125 0 C158.83318848 0.0015081 160.08825195 0.0030162 161.38134766 0.00457001 C166.52240898 0.76397278 169.571799 3.25716841 173.13085938 6.91418457 C175.70876589 12.50116689 175.3593047 17.92747971 175.3203125 24.00793457 C175.3241394 25.31697754 175.32796631 26.62602051 175.33190918 27.97473145 C175.33778855 30.73859653 175.32929291 33.50194259 175.31054688 36.26574707 C175.28775692 39.79656288 175.30088859 43.32616234 175.32483673 46.85693359 C175.34282206 50.24069635 175.33020482 53.62413733 175.3203125 57.00793457 C175.32840942 58.27057129 175.33650635 59.53320801 175.34484863 60.83410645 C175.25482664 69.26913844 174.3857679 72.91122917 168.4140625 78.88293457 C164.7890625 80.50793457 164.7890625 80.50793457 150.7890625 80.50793457 C150.7890625 91.06793457 150.7890625 101.62793457 150.7890625 112.50793457 C160.78024322 112.3508259 160.78024322 112.3508259 170.77050781 112.14758301 C190.43432101 111.99282845 201.7830985 120.51157581 215.93212891 132.89807129 C217.77807175 134.49840617 219.64406938 136.0712507 221.51953125 137.63684082 C233.05309151 147.28543175 243.80027786 157.03114011 246.7890625 172.50793457 C247.08161687 176.56279474 247.06752869 180.60754825 247.05648804 184.67158508 C247.06101915 185.89557611 247.06555026 187.11956713 247.07021868 188.38064879 C247.08066915 191.76606997 247.08219193 195.15127825 247.07982993 198.53670037 C247.07942098 202.1925782 247.09046836 205.84842461 247.09994507 209.50428772 C247.11653875 216.66222862 247.12205387 223.82013657 247.12316982 230.97809509 C247.12412103 236.79783219 247.12823496 242.61755844 247.13457108 248.4372921 C247.15217871 264.94654246 247.16141065 281.45576684 247.15991013 297.96502665 C247.15983022 298.85454027 247.1597503 299.74405389 247.15966797 300.66052246 C247.15958621 301.55112528 247.15950445 302.44172809 247.15942021 303.35931887 C247.15860735 317.79191663 247.17774622 332.22441001 247.2059447 346.65697757 C247.2346872 361.48527763 247.24848426 376.3135268 247.24675715 391.14185542 C247.24609374 399.46321979 247.25156455 407.78447473 247.27311325 416.10581398 C247.291343 423.19074141 247.29565768 430.27550979 247.2820944 437.36045054 C247.27557386 440.97289975 247.27541409 444.58504398 247.2928009 448.19746399 C247.31148352 452.11956076 247.29895324 456.04121455 247.28353882 459.96333313 C247.29896951 461.66340498 247.29896951 461.66340498 247.31471193 463.39782172 C247.23281479 472.84171893 245.05677349 480.94793594 238.4921875 487.97668457 C230.2285679 495.40636091 222.0117543 496.80590152 211.20123291 496.77536011 C210.02709894 496.77989122 208.85296497 496.78442233 207.64325118 496.78909075 C204.39241755 496.79954952 201.14172328 496.80106254 197.8908782 496.798702 C194.38154109 496.79829335 190.8722368 496.80933764 187.36291504 496.81881714 C180.49025633 496.83541808 173.61763194 496.84092629 166.74495485 496.84204189 C161.15688704 496.84299287 155.56883053 496.84710563 149.9807663 496.85344315 C134.1296579 496.87105365 118.27857657 496.8802824 102.42745832 496.8787822 C101.57322324 496.87870229 100.71898817 496.87862237 99.83886719 496.87854004 C98.55594578 496.8784174 98.55594578 496.8784174 97.24710676 496.87829228 C83.38996441 496.87747959 69.53293081 496.89661331 55.6758199 496.92481677 C41.43967769 496.95356249 27.20358849 496.96735612 12.96741652 496.96562922 C4.97803005 496.96496587 -3.01124243 496.97043409 -11.00060272 496.99198532 C-17.80375333 497.01021942 -24.60673829 497.01452629 -31.40990278 497.00096647 C-34.87855574 496.99444777 -38.3468911 496.9942793 -41.81551361 497.01167297 C-45.58234967 497.02711785 -49.34835505 497.01782069 -53.11517334 497.00241089 C-54.20254532 497.01269801 -55.28991729 497.02298514 -56.41023993 497.033584 C-65.71648146 496.94962026 -73.76332105 494.67068484 -80.6796875 488.21105957 C-88.23850137 479.80380741 -89.50816855 471.46423835 -89.47836304 460.47799683 C-89.48515971 458.64540863 -89.48515971 458.64540863 -89.49209368 456.77579844 C-89.50255535 453.39197922 -89.50406499 450.00837274 -89.50170493 446.62455249 C-89.50129638 442.97202712 -89.51233977 439.31953332 -89.52182007 435.66702271 C-89.53842402 428.51295261 -89.54392938 421.35891547 -89.54504482 414.20482771 C-89.5459958 408.38699082 -89.55010858 402.56916479 -89.55644608 396.75133133 C-89.57405859 380.24630414 -89.58328519 363.74130295 -89.58178513 347.2362663 C-89.58170522 346.34671273 -89.5816253 345.45715916 -89.58154297 344.54064941 C-89.58146121 343.65000572 -89.58137945 342.75936202 -89.58129521 341.84172912 C-89.58048281 327.41688538 -89.59960881 312.99214618 -89.6278197 298.56733267 C-89.65657689 283.74583468 -89.67035837 268.92438763 -89.66863215 254.10286105 C-89.66796912 245.78588931 -89.673423 237.4690271 -89.69498825 229.15208054 C-89.71323762 222.06864995 -89.71751684 214.98537852 -89.7039694 207.90193455 C-89.69745795 204.2912697 -89.69725576 200.68090983 -89.7146759 197.07027435 C-89.73341049 193.1466347 -89.72080406 189.22343576 -89.70541382 185.29977417 C-89.71570094 184.1715365 -89.72598807 183.04329882 -89.73658693 181.88087213 C-89.61296495 167.56369994 -84.29407307 156.66141763 -74.4609375 146.44543457 C-70.53190537 142.66781023 -66.32010198 139.27026615 -62.06640625 135.86730957 C-59.17027385 133.47433561 -56.44574973 130.95779344 -53.7109375 128.38293457 C-39.89659793 115.76387828 -26.89997038 111.82788076 -8.4609375 112.25793457 C-0.9121875 112.38168457 -0.9121875 112.38168457 6.7890625 112.50793457 C6.7890625 101.94793457 6.7890625 91.38793457 6.7890625 80.50793457 C2.1690625 80.50793457 -2.4509375 80.50793457 -7.2109375 80.50793457 C-11.88793028 78.4113516 -15.27075602 75.30807061 -17.2109375 70.50793457 C-17.81140758 66.00928611 -17.77125647 61.54095844 -17.7421875 57.00793457 C-17.74792786 55.04437012 -17.74792786 55.04437012 -17.75378418 53.0411377 C-17.75966355 50.27727261 -17.75116791 47.51392655 -17.73242188 44.75012207 C-17.70963192 41.21930626 -17.72276359 37.6897068 -17.74671173 34.15893555 C-17.76469706 30.7751728 -17.75207982 27.39173181 -17.7421875 24.00793457 C-17.75028442 22.74529785 -17.75838135 21.48266113 -17.76672363 20.1817627 C-17.64810491 9.06722585 -17.64810491 9.06722585 -13.2109375 4.50793457 C-8.67620238 0.94389982 -5.74297809 0.00690085 0 0 Z " fill="#C1CFE8" transform="translate(177.2109375,7.4920654296875)"/>
<path d="M0 0 C1.42011872 -0.00599306 2.84023419 -0.01280039 4.26034546 -0.02035522 C8.09941561 -0.03794461 11.93839646 -0.04270764 15.77750301 -0.0439868 C18.18174848 -0.04541312 20.5859716 -0.04969181 22.99021149 -0.05498123 C31.394205 -0.07345908 39.79813528 -0.08165478 48.20214844 -0.08007812 C56.00929595 -0.07887776 63.81616655 -0.09996519 71.62324405 -0.13156545 C78.34796649 -0.157805 85.07259892 -0.1684422 91.7973721 -0.16716731 C95.80402714 -0.16665987 99.81043591 -0.1722211 103.81703949 -0.19352341 C107.58962197 -0.21303563 111.36172657 -0.21294288 115.13432693 -0.19849014 C117.15969437 -0.19543686 119.18506253 -0.21198762 121.21035767 -0.22937012 C140.17799289 -0.10036176 151.43030536 8.78124645 165.02294922 20.68066406 C166.86889207 22.28099895 168.73488969 23.85384347 170.61035156 25.41943359 C182.23658058 35.14554812 192.68676984 44.77927273 195.87988281 60.29052734 C196.15840895 63.58550119 196.15436795 66.86434681 196.14057922 70.1696167 C196.14440477 71.14788902 196.14823032 72.12616133 196.15217179 73.13407826 C196.16246853 76.40340543 196.1585159 79.67255589 196.15454102 82.94189453 C196.15888938 85.28958295 196.16407295 87.63726994 196.17002869 89.98495483 C196.18341802 96.35699251 196.1839973 102.72897086 196.18146539 109.10101986 C196.18025997 115.09764077 196.18647528 121.09425339 196.19189885 127.09087101 C196.20276831 139.69647955 196.20061502 152.30206132 196.194514 164.90767136 C196.18934835 176.42317907 196.20059202 187.9386021 196.21961222 199.45409307 C196.23901665 211.29351572 196.24724187 223.13289836 196.24348897 234.97233701 C196.24158049 241.61306009 196.24429636 248.25372021 196.25820351 254.89443207 C196.27079829 261.14236195 196.26882193 267.39012273 196.25579262 273.63805008 C196.25343072 275.92649264 196.25614761 278.21494716 196.26441574 280.50337601 C196.2749177 283.6369463 196.26675454 286.76995285 196.25410461 289.90350342 C196.2614789 290.80051491 196.26885318 291.69752641 196.27645093 292.62172008 C196.18431291 303.5352712 193.52455564 312.39103209 185.87988281 320.29052734 C177.29710997 328.54319354 165.42091672 328.74513077 154.15722656 328.68896484 C152.85829971 328.69183502 151.55937286 328.6947052 150.22108459 328.69766235 C147.47695111 328.70205868 144.73311249 328.69575845 141.98901367 328.68164062 C138.55706407 328.66480113 135.12582543 328.67453192 131.69390202 328.69196415 C83.40374643 328.89970073 37.8608173 319.44558987 -1.12011719 289.29052734 C-1.12011719 288.96052734 -1.12011719 288.63052734 -1.12011719 288.29052734 C50.68988281 288.29052734 102.49988281 288.29052734 155.87988281 288.29052734 C155.87988281 235.49052734 155.87988281 182.69052734 155.87988281 128.29052734 C79.31988281 128.29052734 2.75988281 128.29052734 -76.12011719 128.29052734 C-76.12011719 55.74638609 -76.12011719 55.74638609 -61.12011719 38.29052734 C-60.62914551 37.71608887 -60.13817383 37.14165039 -59.63232422 36.54980469 C-56.33379195 32.69431207 -53.00882116 28.86298529 -49.66259766 25.04882812 C-48.28177416 23.47480299 -46.90570538 21.89660971 -45.53027344 20.31787109 C-32.28055463 5.30152311 -20.07816601 -0.01381177 0 0 Z " fill="#ECF3F9" transform="translate(228.1201171875,119.70947265625)"/>
<path d="M0 0 C84.48 0 168.96 0 256 0 C256 52.8 256 105.6 256 160 C171.52 160 87.04 160 0 160 C0 107.2 0 54.4 0 0 Z " fill="#006EDA" transform="translate(128,248)"/>
<path d="M0 0 C1.05489624 -0.00935994 1.05489624 -0.00935994 2.13110352 -0.01890898 C4.47576936 -0.03479977 6.81938988 -0.02225106 9.1640625 -0.00964355 C10.84977828 -0.01506645 12.53548932 -0.02219005 14.22119141 -0.03088379 C18.79145963 -0.04910026 23.36136618 -0.04205658 27.93164062 -0.02936745 C32.71745774 -0.01923109 37.50324416 -0.02863489 42.2890625 -0.03491211 C50.32557731 -0.04218666 58.36194503 -0.03260586 66.3984375 -0.0135498 C75.68597197 0.00821857 84.97315519 0.00116706 94.26068115 -0.02085543 C102.23877974 -0.0390149 110.21677267 -0.04156507 118.19488525 -0.03110075 C122.95810706 -0.02486883 127.72116384 -0.02402189 132.484375 -0.0372467 C136.96279317 -0.04881255 141.44075904 -0.04076615 145.91912842 -0.01766968 C147.56141408 -0.0123865 149.20373788 -0.01388971 150.8460083 -0.02272034 C153.09055875 -0.03367555 155.33366615 -0.01991476 157.578125 0 C158.83318848 0.0015081 160.08825195 0.0030162 161.38134766 0.00457001 C166.52240898 0.76397278 169.571799 3.25716841 173.13085938 6.91418457 C175.70876589 12.50116689 175.3593047 17.92747971 175.3203125 24.00793457 C175.3241394 25.31697754 175.32796631 26.62602051 175.33190918 27.97473145 C175.33778855 30.73859653 175.32929291 33.50194259 175.31054688 36.26574707 C175.28775692 39.79656288 175.30088859 43.32616234 175.32483673 46.85693359 C175.34282206 50.24069635 175.33020482 53.62413733 175.3203125 57.00793457 C175.32840942 58.27057129 175.33650635 59.53320801 175.34484863 60.83410645 C175.22622991 71.94864329 175.22622991 71.94864329 170.7890625 76.50793457 C166.25432738 80.07196932 163.32110309 81.0089683 157.578125 81.01586914 C156.52322876 81.02522908 156.52322876 81.02522908 155.44702148 81.03477812 C153.10235564 81.05066891 150.75873512 81.0381202 148.4140625 81.0255127 C146.72834672 81.03093559 145.04263568 81.03805919 143.35693359 81.04675293 C138.78666537 81.0649694 134.21675882 81.05792572 129.64648438 81.04523659 C124.86066726 81.03510023 120.07488084 81.04450404 115.2890625 81.05078125 C107.25254769 81.0580558 99.21617997 81.048475 91.1796875 81.02941895 C81.89215303 81.00765057 72.60496981 81.01470208 63.31744385 81.03672457 C55.33934526 81.05488404 47.36135233 81.05743421 39.38323975 81.04696989 C34.62001794 81.04073798 29.85696116 81.03989103 25.09375 81.05311584 C20.61533183 81.06468169 16.13736596 81.05663529 11.65899658 81.03353882 C10.01671092 81.02825564 8.37438712 81.02975885 6.7321167 81.03858948 C4.48756625 81.04954469 2.24445885 81.0357839 0 81.01586914 C-1.25506348 81.01436104 -2.51012695 81.01285294 -3.80322266 81.01129913 C-8.94428398 80.25189636 -11.993674 77.75870073 -15.55273438 74.10168457 C-18.13064089 68.51470225 -17.7811797 63.08838943 -17.7421875 57.00793457 C-17.7460144 55.6988916 -17.74984131 54.38984863 -17.75378418 53.0411377 C-17.75966355 50.27727261 -17.75116791 47.51392655 -17.73242188 44.75012207 C-17.70963192 41.21930626 -17.72276359 37.6897068 -17.74671173 34.15893555 C-17.76469706 30.7751728 -17.75207982 27.39173181 -17.7421875 24.00793457 C-17.75028442 22.74529785 -17.75838135 21.48266113 -17.76672363 20.1817627 C-17.64810491 9.06722585 -17.64810491 9.06722585 -13.2109375 4.50793457 C-8.67620238 0.94389982 -5.74297809 0.00690085 0 0 Z " fill="#006EDA" transform="translate(177.2109375,7.4920654296875)"/>
<path d="M0 0 C7.92 0 15.84 0 24 0 C24.12375 3.815625 24.2475 7.63125 24.375 11.5625 C26.10897501 56.37509665 41.21258553 99.049916 71 133 C71.76183594 133.87140625 72.52367187 134.7428125 73.30859375 135.640625 C80.34732772 143.5695867 87.52742135 150.57897523 95.83984375 157.1796875 C96.55269531 157.78039062 97.26554687 158.38109375 98 159 C98 159.33 98 159.66 98 160 C65.66 160 33.32 160 0 160 C0 107.2 0 54.4 0 0 Z " fill="#005EBA" transform="translate(128,248)"/>
<path d="M0 0 C0.98613281 0.17208984 0.98613281 0.17208984 1.9921875 0.34765625 C2.65476563 0.43917969 3.31734375 0.53070312 4 0.625 C6.74124774 1.77770041 7.42109709 2.76558158 8.8671875 5.41015625 C9.28830818 8.67701913 9.21551529 11.91803796 9.16015625 15.20703125 C9.15591141 16.15580139 9.15166656 17.10457153 9.14729309 18.08209229 C9.13051832 21.10840391 9.09286806 24.13404635 9.0546875 27.16015625 C9.03963912 29.21353204 9.02595098 31.26691828 9.01367188 33.3203125 C8.98061867 38.35051773 8.92884433 43.38022358 8.8671875 48.41015625 C14.1471875 48.41015625 19.4271875 48.41015625 24.8671875 48.41015625 C24.84100342 47.13374268 24.81481934 45.8573291 24.7878418 44.54223633 C24.69723334 39.79941385 24.63989923 35.05666763 24.5925293 30.31323242 C24.56740944 28.26166919 24.53330714 26.21019524 24.48999023 24.15893555 C24.42922748 21.20729534 24.40095258 18.25683975 24.37890625 15.3046875 C24.35309982 14.38992142 24.3272934 13.47515533 24.30070496 12.53266907 C24.29869639 7.95600401 24.37622361 6.04357416 27.2644043 2.31738281 C29.8671875 0.41015625 29.8671875 0.41015625 32 0 C32.98613281 0.17208984 32.98613281 0.17208984 33.9921875 0.34765625 C34.65476562 0.43917969 35.31734375 0.53070312 36 0.625 C38.74124774 1.77770041 39.42109709 2.76558158 40.8671875 5.41015625 C41.28830818 8.67701913 41.21551529 11.91803796 41.16015625 15.20703125 C41.15591141 16.15580139 41.15166656 17.10457153 41.14729309 18.08209229 C41.13051832 21.10840391 41.09286806 24.13404635 41.0546875 27.16015625 C41.03963912 29.21353204 41.02595098 31.26691828 41.01367188 33.3203125 C40.98061867 38.35051773 40.92884433 43.38022358 40.8671875 48.41015625 C46.1471875 48.41015625 51.4271875 48.41015625 56.8671875 48.41015625 C56.84100342 47.13374268 56.81481934 45.8573291 56.7878418 44.54223633 C56.69723334 39.79941385 56.63989923 35.05666763 56.5925293 30.31323242 C56.56740944 28.26166919 56.53330714 26.21019524 56.48999023 24.15893555 C56.42922748 21.20729534 56.40095258 18.25683975 56.37890625 15.3046875 C56.35309982 14.38992142 56.3272934 13.47515533 56.30070496 12.53266907 C56.29869639 7.95600401 56.37622361 6.04357416 59.2644043 2.31738281 C61.8671875 0.41015625 61.8671875 0.41015625 64 0 C64.98613281 0.17208984 64.98613281 0.17208984 65.9921875 0.34765625 C66.65476562 0.43917969 67.31734375 0.53070312 68 0.625 C70.74124774 1.77770041 71.42109709 2.76558158 72.8671875 5.41015625 C73.28830818 8.67701913 73.21551529 11.91803796 73.16015625 15.20703125 C73.15591141 16.15580139 73.15166656 17.10457153 73.14729309 18.08209229 C73.13051832 21.10840391 73.09286806 24.13404635 73.0546875 27.16015625 C73.03963912 29.21353204 73.02595098 31.26691828 73.01367188 33.3203125 C72.98061867 38.35051773 72.92884433 43.38022358 72.8671875 48.41015625 C78.1471875 48.41015625 83.4271875 48.41015625 88.8671875 48.41015625 C88.84100342 47.13374268 88.81481934 45.8573291 88.7878418 44.54223633 C88.69723334 39.79941385 88.63989923 35.05666763 88.5925293 30.31323242 C88.56740944 28.26166919 88.53330714 26.21019524 88.48999023 24.15893555 C88.42922748 21.20729534 88.40095258 18.25683975 88.37890625 15.3046875 C88.35309982 14.38992142 88.3272934 13.47515533 88.30070496 12.53266907 C88.29869639 7.95600401 88.37622361 6.04357416 91.2644043 2.31738281 C93.8671875 0.41015625 93.8671875 0.41015625 96 0 C96.98613281 0.17208984 96.98613281 0.17208984 97.9921875 0.34765625 C98.65476562 0.43917969 99.31734375 0.53070312 100 0.625 C102.74124774 1.77770041 103.42109709 2.76558158 104.8671875 5.41015625 C105.28830818 8.67701913 105.21551529 11.91803796 105.16015625 15.20703125 C105.15591141 16.15580139 105.15166656 17.10457153 105.14729309 18.08209229 C105.13051832 21.10840391 105.09286806 24.13404635 105.0546875 27.16015625 C105.03963912 29.21353204 105.02595098 31.26691828 105.01367188 33.3203125 C104.98061867 38.35051773 104.92884433 43.38022358 104.8671875 48.41015625 C110.1471875 48.41015625 115.4271875 48.41015625 120.8671875 48.41015625 C120.84100342 47.13374268 120.81481934 45.8573291 120.7878418 44.54223633 C120.69723334 39.79941385 120.63989923 35.05666763 120.5925293 30.31323242 C120.56740944 28.26166919 120.53330714 26.21019524 120.48999023 24.15893555 C120.42922748 21.20729534 120.40095258 18.25683975 120.37890625 15.3046875 C120.35309982 14.38992142 120.3272934 13.47515533 120.30070496 12.53266907 C120.29869639 7.95600401 120.37622361 6.04357416 123.2644043 2.31738281 C125.8671875 0.41015625 125.8671875 0.41015625 128 0 C128.65742188 0.11472656 129.31484375 0.22945312 129.9921875 0.34765625 C130.65476562 0.43917969 131.31734375 0.53070312 132 0.625 C134.74124774 1.77770041 135.42109709 2.76558158 136.8671875 5.41015625 C137.28830818 8.67701913 137.21551529 11.91803796 137.16015625 15.20703125 C137.15591141 16.15580139 137.15166656 17.10457153 137.14729309 18.08209229 C137.13051832 21.10840391 137.09286806 24.13404635 137.0546875 27.16015625 C137.03963912 29.21353204 137.02595098 31.26691828 137.01367188 33.3203125 C136.98061867 38.35051773 136.92884433 43.38022358 136.8671875 48.41015625 C139.28946927 48.13600303 141.70907768 47.84912115 144.12890625 47.5546875 C144.81239136 47.4786731 145.49587646 47.40265869 146.20007324 47.32434082 C151.72708904 46.63576747 154.36976794 45.70698599 157.8671875 41.41015625 C159.26538262 38.75870805 159.26538262 38.75870805 159.8671875 36.41015625 C160.1971875 36.41015625 160.5271875 36.41015625 160.8671875 36.41015625 C160.97571673 39.2861808 161.054739 42.15806457 161.1171875 45.03515625 C161.15070313 45.84339844 161.18421875 46.65164062 161.21875 47.484375 C161.30800389 52.9734895 160.64697429 56.14225129 156.8671875 60.41015625 C152.34569179 63.9893539 149.39415191 64.91119607 143.65625 64.91809082 C142.60135376 64.92745076 142.60135376 64.92745076 141.52514648 64.9369998 C139.18048064 64.95289059 136.83686012 64.94034188 134.4921875 64.92773438 C132.80647172 64.93315727 131.12076068 64.94028087 129.43505859 64.94897461 C124.86479037 64.96719108 120.29488382 64.9601474 115.72460938 64.94745827 C110.93879226 64.93732191 106.15300584 64.94672571 101.3671875 64.95300293 C93.33067269 64.96027748 85.29430497 64.95069668 77.2578125 64.93164062 C67.97027803 64.90987225 58.68309481 64.91692376 49.39556885 64.93894625 C41.41747026 64.95710572 33.43947733 64.95965589 25.46136475 64.94919157 C20.69814294 64.94295966 15.93508616 64.94211271 11.171875 64.95533752 C6.69345683 64.96690337 2.21549096 64.95885697 -2.26287842 64.9357605 C-3.90516408 64.93047732 -5.54748788 64.93198053 -7.1897583 64.94081116 C-9.43430875 64.95176637 -11.67741615 64.93800558 -13.921875 64.91809082 C-15.17693848 64.91658272 -16.43200195 64.91507462 -17.72509766 64.91352081 C-22.97667976 64.13779266 -26.03293131 61.65207508 -29.4921875 57.74609375 C-31.65626588 53.34580104 -31.58278984 49.85768661 -31.3828125 45.03515625 C-31.36476562 44.20371094 -31.34671875 43.37226562 -31.328125 42.515625 C-31.28132823 40.47996551 -31.20959548 38.44490535 -31.1328125 36.41015625 C-30.4728125 37.40015625 -29.8128125 38.39015625 -29.1328125 39.41015625 C-25.78657445 43.96475804 -23.85402045 46.244725 -18.1328125 47.41015625 C-16.23093801 47.60889755 -14.32700591 47.78850143 -12.421875 47.953125 C-11.4313916 48.03973389 -10.4409082 48.12634277 -9.42041016 48.21557617 C-8.66550293 48.2797876 -7.9105957 48.34399902 -7.1328125 48.41015625 C-7.15899658 47.13374268 -7.18518066 45.8573291 -7.2121582 44.54223633 C-7.30276666 39.79941385 -7.36010077 35.05666763 -7.4074707 30.31323242 C-7.43259056 28.26166919 -7.46669286 26.21019524 -7.51000977 24.15893555 C-7.57077252 21.20729534 -7.59904742 18.25683975 -7.62109375 15.3046875 C-7.64690018 14.38992142 -7.6727066 13.47515533 -7.69929504 12.53266907 C-7.70130361 7.95600401 -7.62377639 6.04357416 -4.7355957 2.31738281 C-2.1328125 0.41015625 -2.1328125 0.41015625 0 0 Z " fill="#004080" transform="translate(191.1328125,23.58984375)"/>
<path d="M0 0 C10.56 0 21.12 0 32 0 C32 10.56 32 21.12 32 32 C42.56 32 53.12 32 64 32 C64 42.56 64 53.12 64 64 C53.44 64 42.88 64 32 64 C32 74.56 32 85.12 32 96 C21.44 96 10.88 96 0 96 C0 85.44 0 74.88 0 64 C-10.56 64 -21.12 64 -32 64 C-32 53.44 -32 42.88 -32 32 C-21.44 32 -10.88 32 0 32 C0 21.44 0 10.88 0 0 Z " fill="#FBFBFB" transform="translate(240,280)"/>
<path d="M0 0 C47.52 0 95.04 0 144 0 C144 5.28 144 10.56 144 16 C142.67504013 16.00586624 141.35008026 16.01173248 139.98497009 16.01777649 C127.49302378 16.07501158 115.00125141 16.14777765 102.50948238 16.23571491 C96.08747044 16.28042519 89.66552204 16.31968014 83.2434082 16.34643555 C77.0446787 16.37246155 70.84619361 16.41285966 64.64761543 16.46318626 C62.28379928 16.4798596 59.91994085 16.49137095 57.55607414 16.49761391 C54.24277044 16.50724957 50.93009274 16.53530386 47.61694336 16.56762695 C46.15390022 16.56547432 46.15390022 16.56547432 44.66130066 16.5632782 C37.93401689 16.65597435 32.70456746 17.36852895 27.6875 22.25 C25.51312766 25.51711131 25.51312766 25.51711131 24 32 C16.08 32 8.16 32 0 32 C0 21.44 0 10.88 0 0 Z " fill="#8394B2" transform="translate(184,88)"/>
<path d="M0 0 C4.07440568 2.35912512 7.60648687 5.14174033 11.23828125 8.125 C11.9240625 8.67285156 12.60984375 9.22070312 13.31640625 9.78515625 C21.34933023 16.33106949 26.98897327 22.46634666 29.23828125 32.875 C29.68750287 37.90047374 29.77488628 42.85947481 29.70483398 47.90161133 C29.67560451 50.20140565 29.68431874 52.49892327 29.69726562 54.79882812 C29.69103378 56.27865691 29.68264717 57.75847855 29.671875 59.23828125 C29.67481064 59.91651443 29.67774628 60.59474762 29.68077087 61.29353333 C29.5778888 66.52311998 28.29722808 70.61766506 24.73828125 74.51953125 C19.65483735 78.47773366 15.63660616 79.53186225 9.23828125 78.875 C3.97233781 77.01643173 1.44432357 74.27185804 -1.76171875 69.875 C-2.90089093 66.45748347 -2.87510356 63.84012063 -2.859375 60.23828125 C-2.85615234 58.93955078 -2.85292969 57.64082031 -2.84960938 56.30273438 C-2.84125406 54.93098892 -2.83278912 53.55924413 -2.82421875 52.1875 C-2.8192021 50.80403805 -2.81463948 49.42057437 -2.81054688 48.03710938 C-2.79874404 44.64969605 -2.78227894 41.26236967 -2.76171875 37.875 C-3.36693359 37.5860083 -3.97214844 37.2970166 -4.59570312 36.99926758 C-7.45641546 35.51441858 -9.76754816 33.60100481 -12.26171875 31.5625 C-13.669375 30.42361328 -13.669375 30.42361328 -15.10546875 29.26171875 C-19.9440811 24.91408324 -22.57856722 21.66806085 -23.01171875 15.0625 C-22.9252916 10.34357777 -21.7258264 6.86057331 -18.33203125 3.4296875 C-12.83788041 -1.35377716 -6.79874262 -2.76950194 0 0 Z " fill="#FEFEFE" transform="translate(378.76171875,153.125)"/>
<path d="M0 0 C0.90581314 -0.00137466 1.81162628 -0.00274933 2.74488831 -0.00416565 C4.22411018 0.00122726 4.22411018 0.00122726 5.73321533 0.00672913 C6.77743149 0.0065831 7.82164764 0.00643707 8.89750671 0.00628662 C12.34959998 0.00698338 15.80163931 0.01476478 19.25372314 0.02259827 C21.64697236 0.02446328 24.04022195 0.02588679 26.43347168 0.02688599 C32.7332057 0.03070456 39.03291668 0.04052925 45.3326416 0.05158997 C51.76075936 0.06181824 58.18888084 0.06638665 64.61700439 0.07142639 C77.23029577 0.08215208 89.84357004 0.09922062 102.45684814 0.12025452 C102.45684814 5.40025452 102.45684814 10.68025452 102.45684814 16.12025452 C62.85684814 16.12025452 23.25684814 16.12025452 -17.54315186 16.12025452 C-15.28572611 5.96183868 -15.28572611 5.96183868 -12.16815186 3.62025452 C-11.58291748 3.15619202 -10.99768311 2.69212952 -10.39471436 2.21400452 C-7.05136676 0.23903125 -3.82730938 -0.00449215 0 0 Z " fill="#A7B6D3" transform="translate(225.54315185546875,103.87974548339844)"/>
<path d="M0 0 C1.45220444 0.00848969 1.45220444 0.00848969 2.93374634 0.01715088 C6.01103179 0.03945388 9.0871319 0.08963944 12.1640625 0.140625 C14.25649354 0.16069783 16.34894293 0.17894723 18.44140625 0.1953125 C23.55774497 0.23929886 28.6732031 0.30828481 33.7890625 0.390625 C31.45067892 1.94954739 29.569213 2.93272059 27.0390625 4.015625 C21.07972114 6.92932511 17.40143777 11.97206209 13.7890625 17.390625 C11.45572917 17.72395833 9.12239583 18.05729167 6.7890625 18.390625 C4.73546348 21.47102353 4.53167516 22.18547198 4.47021484 25.6784668 C4.45034515 26.53913254 4.43047546 27.39979828 4.41000366 28.2865448 C4.39267685 29.67417778 4.39267685 29.67417778 4.375 31.08984375 C4.35563385 32.04002884 4.3362677 32.99021393 4.3163147 33.9691925 C4.25651338 37.0054119 4.21013121 40.04166919 4.1640625 43.078125 C4.12588324 45.13608428 4.08683154 47.19402758 4.046875 49.25195312 C3.95081131 54.2980473 3.86678219 59.34421629 3.7890625 64.390625 C2.0365676 64.4211589 0.28391798 64.44289238 -1.46875 64.4609375 C-2.44473145 64.47398926 -3.42071289 64.48704102 -4.42626953 64.50048828 C-8.99910963 64.32007639 -12.30764139 63.2047041 -15.7109375 59.9609375 C-18.99799067 56.20697337 -20.32087729 53.20399369 -20.38793945 48.28979492 C-20.40077469 47.46851608 -20.41360992 46.64723724 -20.42683411 45.80107117 C-20.43422104 44.91667862 -20.44160797 44.03228607 -20.44921875 43.12109375 C-20.4572905 42.20733475 -20.46536224 41.29357574 -20.47367859 40.35212708 C-20.48750757 38.41795747 -20.49823503 36.48376358 -20.50610352 34.54956055 C-20.52331208 31.59962457 -20.56720801 28.65081079 -20.61132812 25.70117188 C-20.6214559 23.82032073 -20.62997174 21.93946007 -20.63671875 20.05859375 C-20.65422684 19.1802739 -20.67173492 18.30195404 -20.68977356 17.39701843 C-20.6704337 11.90533003 -19.99702737 8.65612619 -16.2109375 4.390625 C-11.06155364 -0.2437242 -6.57929347 -0.1458224 0 0 Z " fill="#005EBA" transform="translate(180.2109375,7.609375)"/>
<path d="M0 0 C0.33 0 0.66 0 1 0 C1.34553378 5.75889634 1.36702695 10.06169381 -2 15 C-5.91813658 19.04983865 -9.17477033 20.90135371 -14.796875 21.09765625 C-15.77140625 21.08605469 -16.7459375 21.07445313 -17.75 21.0625 C-18.73484375 21.05347656 -19.7196875 21.04445313 -20.734375 21.03515625 C-21.48203125 21.02355469 -22.2296875 21.01195313 -23 21 C-23 18.36 -23 15.72 -23 13 C-21.98679687 12.91363281 -20.97359375 12.82726563 -19.9296875 12.73828125 C-11.56959384 12.19605571 -11.56959384 12.19605571 -4.1875 8.75 C-1.89485752 5.86782088 -0.83089689 3.57285663 0 0 Z " fill="#005DB9" transform="translate(351,51)"/>
<path d="M0 0 C1.155 0.763125 2.31 1.52625 3.5 2.3125 C7.53242398 4.8471665 11.49731636 6.47230376 16 8 C16 10.64 16 13.28 16 16 C10.72 16 5.44 16 0 16 C0 10.72 0 5.44 0 0 Z " fill="#005EBA" transform="translate(200,56)"/>
<path d="M0 0 C5.28 0 10.56 0 16 0 C16 2.64 16 5.28 16 8 C10.72 8 5.44 8 0 8 C0 5.36 0 2.72 0 0 Z " fill="#005EBA" transform="translate(296,64)"/>
<path d="M0 0 C5.28 0 10.56 0 16 0 C16 2.64 16 5.28 16 8 C10.72 8 5.44 8 0 8 C0 5.36 0 2.72 0 0 Z " fill="#005EBA" transform="translate(264,64)"/>
<path d="M0 0 C5.28 0 10.56 0 16 0 C16 2.64 16 5.28 16 8 C10.72 8 5.44 8 0 8 C0 5.36 0 2.72 0 0 Z " fill="#005EBA" transform="translate(232,64)"/>
</svg>
